<mxfile host="app.diagrams.net" agent="Mozilla/5.0 (X11; Linux x86_64) AppleWebKit/537.36 (KHTML, like Gecko) Chrome/133.0.0.0 Safari/537.36" version="26.0.2">
  <diagram name="Page-1" id="Tt0VTNicZIuCcAiAK5RQ">
    <mxGraphModel dx="838" dy="772" grid="1" gridSize="10" guides="1" tooltips="1" connect="1" arrows="1" fold="1" page="1" pageScale="1" pageWidth="850" pageHeight="1100" math="0" shadow="0">
      <root>
        <mxCell id="0" />
        <mxCell id="1" parent="0" />
        <mxCell id="mdiExh4OUoVhqkoO6KxK-79" style="edgeStyle=orthogonalEdgeStyle;rounded=0;orthogonalLoop=1;jettySize=auto;html=1;entryX=0.5;entryY=0;entryDx=0;entryDy=0;startArrow=ERone;startFill=0;endArrow=ERone;endFill=0;" edge="1" parent="1" source="mdiExh4OUoVhqkoO6KxK-1" target="mdiExh4OUoVhqkoO6KxK-42">
          <mxGeometry relative="1" as="geometry" />
        </mxCell>
        <mxCell id="mdiExh4OUoVhqkoO6KxK-1" value="Keys" style="swimlane;fontStyle=0;childLayout=stackLayout;horizontal=1;startSize=26;fillColor=#ffe6cc;horizontalStack=0;resizeParent=1;resizeParentMax=0;resizeLast=0;collapsible=1;marginBottom=0;html=1;strokeColor=#d79b00;" vertex="1" parent="1">
          <mxGeometry x="295" y="762" width="260" height="78" as="geometry" />
        </mxCell>
        <mxCell id="mdiExh4OUoVhqkoO6KxK-3" value="int ID&amp;nbsp;&lt;b&gt;PRIMARY KEY&lt;/b&gt;" style="text;strokeColor=none;fillColor=none;align=left;verticalAlign=top;spacingLeft=4;spacingRight=4;overflow=hidden;rotatable=0;points=[[0,0.5],[1,0.5]];portConstraint=eastwest;whiteSpace=wrap;html=1;" vertex="1" parent="mdiExh4OUoVhqkoO6KxK-1">
          <mxGeometry y="26" width="260" height="26" as="geometry" />
        </mxCell>
        <mxCell id="mdiExh4OUoVhqkoO6KxK-4" value="byte_array PUBLIC KEY" style="text;strokeColor=none;fillColor=none;align=left;verticalAlign=top;spacingLeft=4;spacingRight=4;overflow=hidden;rotatable=0;points=[[0,0.5],[1,0.5]];portConstraint=eastwest;whiteSpace=wrap;html=1;" vertex="1" parent="mdiExh4OUoVhqkoO6KxK-1">
          <mxGeometry y="52" width="260" height="26" as="geometry" />
        </mxCell>
        <mxCell id="mdiExh4OUoVhqkoO6KxK-70" style="edgeStyle=orthogonalEdgeStyle;rounded=0;orthogonalLoop=1;jettySize=auto;html=1;startArrow=ERone;startFill=0;endArrow=ERmany;endFill=0;" edge="1" parent="1" source="mdiExh4OUoVhqkoO6KxK-9" target="mdiExh4OUoVhqkoO6KxK-18">
          <mxGeometry relative="1" as="geometry" />
        </mxCell>
        <mxCell id="mdiExh4OUoVhqkoO6KxK-9" value="Departments" style="swimlane;fontStyle=0;childLayout=stackLayout;horizontal=1;startSize=26;fillColor=#ffe6cc;horizontalStack=0;resizeParent=1;resizeParentMax=0;resizeLast=0;collapsible=1;marginBottom=0;html=1;strokeColor=#d79b00;" vertex="1" parent="1">
          <mxGeometry x="295" y="373" width="260" height="78" as="geometry" />
        </mxCell>
        <mxCell id="mdiExh4OUoVhqkoO6KxK-10" value="int ID&amp;nbsp;&lt;b&gt;PRIMARY KEY&lt;/b&gt;" style="text;strokeColor=none;fillColor=none;align=left;verticalAlign=top;spacingLeft=4;spacingRight=4;overflow=hidden;rotatable=0;points=[[0,0.5],[1,0.5]];portConstraint=eastwest;whiteSpace=wrap;html=1;" vertex="1" parent="mdiExh4OUoVhqkoO6KxK-9">
          <mxGeometry y="26" width="260" height="26" as="geometry" />
        </mxCell>
        <mxCell id="mdiExh4OUoVhqkoO6KxK-11" value="varcar (100) NAME" style="text;strokeColor=none;fillColor=none;align=left;verticalAlign=top;spacingLeft=4;spacingRight=4;overflow=hidden;rotatable=0;points=[[0,0.5],[1,0.5]];portConstraint=eastwest;whiteSpace=wrap;html=1;" vertex="1" parent="mdiExh4OUoVhqkoO6KxK-9">
          <mxGeometry y="52" width="260" height="26" as="geometry" />
        </mxCell>
        <mxCell id="mdiExh4OUoVhqkoO6KxK-71" style="edgeStyle=orthogonalEdgeStyle;rounded=0;orthogonalLoop=1;jettySize=auto;html=1;startArrow=ERone;startFill=0;endArrow=ERmany;endFill=0;" edge="1" parent="1" source="mdiExh4OUoVhqkoO6KxK-18" target="mdiExh4OUoVhqkoO6KxK-22">
          <mxGeometry relative="1" as="geometry" />
        </mxCell>
        <mxCell id="mdiExh4OUoVhqkoO6KxK-18" value="Divisions" style="swimlane;fontStyle=0;childLayout=stackLayout;horizontal=1;startSize=26;fillColor=#fff2cc;horizontalStack=0;resizeParent=1;resizeParentMax=0;resizeLast=0;collapsible=1;marginBottom=0;html=1;strokeColor=#d6b656;" vertex="1" parent="1">
          <mxGeometry y="360" width="260" height="104" as="geometry" />
        </mxCell>
        <mxCell id="mdiExh4OUoVhqkoO6KxK-19" value="int ID&amp;nbsp;&lt;b&gt;PRIMARY KEY&lt;/b&gt;" style="text;strokeColor=none;fillColor=none;align=left;verticalAlign=top;spacingLeft=4;spacingRight=4;overflow=hidden;rotatable=0;points=[[0,0.5],[1,0.5]];portConstraint=eastwest;whiteSpace=wrap;html=1;" vertex="1" parent="mdiExh4OUoVhqkoO6KxK-18">
          <mxGeometry y="26" width="260" height="26" as="geometry" />
        </mxCell>
        <mxCell id="mdiExh4OUoVhqkoO6KxK-20" value="varcar (100) NAME" style="text;strokeColor=none;fillColor=none;align=left;verticalAlign=top;spacingLeft=4;spacingRight=4;overflow=hidden;rotatable=0;points=[[0,0.5],[1,0.5]];portConstraint=eastwest;whiteSpace=wrap;html=1;" vertex="1" parent="mdiExh4OUoVhqkoO6KxK-18">
          <mxGeometry y="52" width="260" height="26" as="geometry" />
        </mxCell>
        <mxCell id="mdiExh4OUoVhqkoO6KxK-21" value="int DEPARTMENT_ID &lt;b&gt;FOREIGN KEY&lt;/b&gt;" style="text;strokeColor=none;fillColor=none;align=left;verticalAlign=top;spacingLeft=4;spacingRight=4;overflow=hidden;rotatable=0;points=[[0,0.5],[1,0.5]];portConstraint=eastwest;whiteSpace=wrap;html=1;" vertex="1" parent="mdiExh4OUoVhqkoO6KxK-18">
          <mxGeometry y="78" width="260" height="26" as="geometry" />
        </mxCell>
        <mxCell id="mdiExh4OUoVhqkoO6KxK-72" style="edgeStyle=orthogonalEdgeStyle;rounded=0;orthogonalLoop=1;jettySize=auto;html=1;startArrow=ERone;startFill=0;endArrow=ERmany;endFill=0;" edge="1" parent="1" source="mdiExh4OUoVhqkoO6KxK-22" target="mdiExh4OUoVhqkoO6KxK-35">
          <mxGeometry relative="1" as="geometry" />
        </mxCell>
        <mxCell id="mdiExh4OUoVhqkoO6KxK-74" style="edgeStyle=orthogonalEdgeStyle;rounded=0;orthogonalLoop=1;jettySize=auto;html=1;startArrow=ERone;startFill=0;endArrow=ERmany;endFill=0;" edge="1" parent="1" source="mdiExh4OUoVhqkoO6KxK-22" target="mdiExh4OUoVhqkoO6KxK-54">
          <mxGeometry relative="1" as="geometry" />
        </mxCell>
        <mxCell id="mdiExh4OUoVhqkoO6KxK-22" value="Sections" style="swimlane;fontStyle=0;childLayout=stackLayout;horizontal=1;startSize=26;fillColor=#dae8fc;horizontalStack=0;resizeParent=1;resizeParentMax=0;resizeLast=0;collapsible=1;marginBottom=0;html=1;strokeColor=#6c8ebf;" vertex="1" parent="1">
          <mxGeometry y="500" width="260" height="340" as="geometry" />
        </mxCell>
        <mxCell id="mdiExh4OUoVhqkoO6KxK-23" value="int ID&amp;nbsp;&lt;b&gt;PRIMARY KEY&lt;/b&gt;" style="text;strokeColor=none;fillColor=none;align=left;verticalAlign=top;spacingLeft=4;spacingRight=4;overflow=hidden;rotatable=0;points=[[0,0.5],[1,0.5]];portConstraint=eastwest;whiteSpace=wrap;html=1;" vertex="1" parent="mdiExh4OUoVhqkoO6KxK-22">
          <mxGeometry y="26" width="260" height="26" as="geometry" />
        </mxCell>
        <mxCell id="mdiExh4OUoVhqkoO6KxK-24" value="varcar (100) NAME" style="text;strokeColor=none;fillColor=none;align=left;verticalAlign=top;spacingLeft=4;spacingRight=4;overflow=hidden;rotatable=0;points=[[0,0.5],[1,0.5]];portConstraint=eastwest;whiteSpace=wrap;html=1;" vertex="1" parent="mdiExh4OUoVhqkoO6KxK-22">
          <mxGeometry y="52" width="260" height="26" as="geometry" />
        </mxCell>
        <mxCell id="mdiExh4OUoVhqkoO6KxK-25" value="int DIVISION_ID&amp;nbsp;&lt;b&gt;FOREIGN KEY&lt;/b&gt;" style="text;strokeColor=none;fillColor=none;align=left;verticalAlign=top;spacingLeft=4;spacingRight=4;overflow=hidden;rotatable=0;points=[[0,0.5],[1,0.5]];portConstraint=eastwest;whiteSpace=wrap;html=1;" vertex="1" parent="mdiExh4OUoVhqkoO6KxK-22">
          <mxGeometry y="78" width="260" height="26" as="geometry" />
        </mxCell>
        <mxCell id="mdiExh4OUoVhqkoO6KxK-26" value="int LEAD_ID&amp;nbsp;&lt;b&gt;FOREIGN KEY&lt;/b&gt;" style="text;strokeColor=none;fillColor=none;align=left;verticalAlign=top;spacingLeft=4;spacingRight=4;overflow=hidden;rotatable=0;points=[[0,0.5],[1,0.5]];portConstraint=eastwest;whiteSpace=wrap;html=1;" vertex="1" parent="mdiExh4OUoVhqkoO6KxK-22">
          <mxGeometry y="104" width="260" height="26" as="geometry" />
        </mxCell>
        <mxCell id="mdiExh4OUoVhqkoO6KxK-27" value="int START_HOUR" style="text;strokeColor=none;fillColor=none;align=left;verticalAlign=top;spacingLeft=4;spacingRight=4;overflow=hidden;rotatable=0;points=[[0,0.5],[1,0.5]];portConstraint=eastwest;whiteSpace=wrap;html=1;" vertex="1" parent="mdiExh4OUoVhqkoO6KxK-22">
          <mxGeometry y="130" width="260" height="26" as="geometry" />
        </mxCell>
        <mxCell id="mdiExh4OUoVhqkoO6KxK-28" value="boolean MONDAY" style="text;strokeColor=none;fillColor=none;align=left;verticalAlign=top;spacingLeft=4;spacingRight=4;overflow=hidden;rotatable=0;points=[[0,0.5],[1,0.5]];portConstraint=eastwest;whiteSpace=wrap;html=1;" vertex="1" parent="mdiExh4OUoVhqkoO6KxK-22">
          <mxGeometry y="156" width="260" height="26" as="geometry" />
        </mxCell>
        <mxCell id="mdiExh4OUoVhqkoO6KxK-29" value="boolean TUESDAY" style="text;strokeColor=none;fillColor=none;align=left;verticalAlign=top;spacingLeft=4;spacingRight=4;overflow=hidden;rotatable=0;points=[[0,0.5],[1,0.5]];portConstraint=eastwest;whiteSpace=wrap;html=1;" vertex="1" parent="mdiExh4OUoVhqkoO6KxK-22">
          <mxGeometry y="182" width="260" height="26" as="geometry" />
        </mxCell>
        <mxCell id="mdiExh4OUoVhqkoO6KxK-30" value="boolean WEDNESDAY" style="text;strokeColor=none;fillColor=none;align=left;verticalAlign=top;spacingLeft=4;spacingRight=4;overflow=hidden;rotatable=0;points=[[0,0.5],[1,0.5]];portConstraint=eastwest;whiteSpace=wrap;html=1;" vertex="1" parent="mdiExh4OUoVhqkoO6KxK-22">
          <mxGeometry y="208" width="260" height="26" as="geometry" />
        </mxCell>
        <mxCell id="mdiExh4OUoVhqkoO6KxK-31" value="boolean THURSDAY" style="text;strokeColor=none;fillColor=none;align=left;verticalAlign=top;spacingLeft=4;spacingRight=4;overflow=hidden;rotatable=0;points=[[0,0.5],[1,0.5]];portConstraint=eastwest;whiteSpace=wrap;html=1;" vertex="1" parent="mdiExh4OUoVhqkoO6KxK-22">
          <mxGeometry y="234" width="260" height="26" as="geometry" />
        </mxCell>
        <mxCell id="mdiExh4OUoVhqkoO6KxK-32" value="boolean FRIDAY" style="text;strokeColor=none;fillColor=none;align=left;verticalAlign=top;spacingLeft=4;spacingRight=4;overflow=hidden;rotatable=0;points=[[0,0.5],[1,0.5]];portConstraint=eastwest;whiteSpace=wrap;html=1;" vertex="1" parent="mdiExh4OUoVhqkoO6KxK-22">
          <mxGeometry y="260" width="260" height="26" as="geometry" />
        </mxCell>
        <mxCell id="mdiExh4OUoVhqkoO6KxK-33" value="boolean SATURDAY" style="text;strokeColor=none;fillColor=none;align=left;verticalAlign=top;spacingLeft=4;spacingRight=4;overflow=hidden;rotatable=0;points=[[0,0.5],[1,0.5]];portConstraint=eastwest;whiteSpace=wrap;html=1;" vertex="1" parent="mdiExh4OUoVhqkoO6KxK-22">
          <mxGeometry y="286" width="260" height="26" as="geometry" />
        </mxCell>
        <mxCell id="mdiExh4OUoVhqkoO6KxK-34" value="boolean SUNDAY" style="text;strokeColor=none;fillColor=none;align=left;verticalAlign=top;spacingLeft=4;spacingRight=4;overflow=hidden;rotatable=0;points=[[0,0.5],[1,0.5]];portConstraint=eastwest;whiteSpace=wrap;html=1;" vertex="1" parent="mdiExh4OUoVhqkoO6KxK-22">
          <mxGeometry y="312" width="260" height="28" as="geometry" />
        </mxCell>
        <mxCell id="mdiExh4OUoVhqkoO6KxK-73" style="edgeStyle=orthogonalEdgeStyle;rounded=0;orthogonalLoop=1;jettySize=auto;html=1;entryX=0;entryY=0.5;entryDx=0;entryDy=0;startArrow=ERone;startFill=0;endArrow=ERone;endFill=0;" edge="1" parent="1" source="mdiExh4OUoVhqkoO6KxK-35" target="mdiExh4OUoVhqkoO6KxK-44">
          <mxGeometry relative="1" as="geometry" />
        </mxCell>
        <mxCell id="mdiExh4OUoVhqkoO6KxK-35" value="Employees" style="swimlane;fontStyle=0;childLayout=stackLayout;horizontal=1;startSize=26;fillColor=#b0e3e6;horizontalStack=0;resizeParent=1;resizeParentMax=0;resizeLast=0;collapsible=1;marginBottom=0;html=1;strokeColor=#0e8088;" vertex="1" parent="1">
          <mxGeometry y="881" width="260" height="130" as="geometry" />
        </mxCell>
        <mxCell id="mdiExh4OUoVhqkoO6KxK-36" value="int ID&amp;nbsp;&lt;b&gt;PRIMARY KEY&lt;/b&gt;" style="text;strokeColor=none;fillColor=none;align=left;verticalAlign=top;spacingLeft=4;spacingRight=4;overflow=hidden;rotatable=0;points=[[0,0.5],[1,0.5]];portConstraint=eastwest;whiteSpace=wrap;html=1;" vertex="1" parent="mdiExh4OUoVhqkoO6KxK-35">
          <mxGeometry y="26" width="260" height="26" as="geometry" />
        </mxCell>
        <mxCell id="mdiExh4OUoVhqkoO6KxK-38" value="int SECTION_ID&amp;nbsp;&amp;nbsp;&lt;b&gt;FOREIGN KEY&lt;/b&gt;" style="text;strokeColor=none;fillColor=none;align=left;verticalAlign=top;spacingLeft=4;spacingRight=4;overflow=hidden;rotatable=0;points=[[0,0.5],[1,0.5]];portConstraint=eastwest;whiteSpace=wrap;html=1;" vertex="1" parent="mdiExh4OUoVhqkoO6KxK-35">
          <mxGeometry y="52" width="260" height="26" as="geometry" />
        </mxCell>
        <mxCell id="mdiExh4OUoVhqkoO6KxK-39" value="varcar (100) FIRST_NAME" style="text;strokeColor=none;fillColor=none;align=left;verticalAlign=top;spacingLeft=4;spacingRight=4;overflow=hidden;rotatable=0;points=[[0,0.5],[1,0.5]];portConstraint=eastwest;whiteSpace=wrap;html=1;" vertex="1" parent="mdiExh4OUoVhqkoO6KxK-35">
          <mxGeometry y="78" width="260" height="26" as="geometry" />
        </mxCell>
        <mxCell id="mdiExh4OUoVhqkoO6KxK-40" value="varcar (100) LAST_NAME" style="text;strokeColor=none;fillColor=none;align=left;verticalAlign=top;spacingLeft=4;spacingRight=4;overflow=hidden;rotatable=0;points=[[0,0.5],[1,0.5]];portConstraint=eastwest;whiteSpace=wrap;html=1;" vertex="1" parent="mdiExh4OUoVhqkoO6KxK-35">
          <mxGeometry y="104" width="260" height="26" as="geometry" />
        </mxCell>
        <mxCell id="mdiExh4OUoVhqkoO6KxK-76" style="edgeStyle=orthogonalEdgeStyle;rounded=0;orthogonalLoop=1;jettySize=auto;html=1;startArrow=ERone;startFill=0;endArrow=ERone;endFill=0;" edge="1" parent="1" source="mdiExh4OUoVhqkoO6KxK-42" target="mdiExh4OUoVhqkoO6KxK-65">
          <mxGeometry relative="1" as="geometry" />
        </mxCell>
        <mxCell id="mdiExh4OUoVhqkoO6KxK-42" value="Users" style="swimlane;fontStyle=0;childLayout=stackLayout;horizontal=1;startSize=26;fillColor=#bac8d3;horizontalStack=0;resizeParent=1;resizeParentMax=0;resizeLast=0;collapsible=1;marginBottom=0;html=1;strokeColor=#23445d;" vertex="1" parent="1">
          <mxGeometry x="295" y="881" width="260" height="130" as="geometry" />
        </mxCell>
        <mxCell id="mdiExh4OUoVhqkoO6KxK-43" value="int ID&amp;nbsp;&lt;b&gt;PRIMARY KEY&lt;/b&gt;" style="text;strokeColor=none;fillColor=none;align=left;verticalAlign=top;spacingLeft=4;spacingRight=4;overflow=hidden;rotatable=0;points=[[0,0.5],[1,0.5]];portConstraint=eastwest;whiteSpace=wrap;html=1;" vertex="1" parent="mdiExh4OUoVhqkoO6KxK-42">
          <mxGeometry y="26" width="260" height="26" as="geometry" />
        </mxCell>
        <mxCell id="mdiExh4OUoVhqkoO6KxK-44" value="int EMPLOYEE_NUMBER&amp;nbsp;&amp;nbsp;&lt;b&gt;FOREIGN KEY&lt;/b&gt;" style="text;strokeColor=none;fillColor=none;align=left;verticalAlign=top;spacingLeft=4;spacingRight=4;overflow=hidden;rotatable=0;points=[[0,0.5],[1,0.5]];portConstraint=eastwest;whiteSpace=wrap;html=1;" vertex="1" parent="mdiExh4OUoVhqkoO6KxK-42">
          <mxGeometry y="52" width="260" height="26" as="geometry" />
        </mxCell>
        <mxCell id="mdiExh4OUoVhqkoO6KxK-47" value="int KEY_ID&amp;nbsp;&amp;nbsp;&lt;b&gt;FOREIGN KEY&lt;/b&gt;" style="text;strokeColor=none;fillColor=none;align=left;verticalAlign=top;spacingLeft=4;spacingRight=4;overflow=hidden;rotatable=0;points=[[0,0.5],[1,0.5]];portConstraint=eastwest;whiteSpace=wrap;html=1;" vertex="1" parent="mdiExh4OUoVhqkoO6KxK-42">
          <mxGeometry y="78" width="260" height="26" as="geometry" />
        </mxCell>
        <mxCell id="mdiExh4OUoVhqkoO6KxK-48" value="varcar (100) ACCOUNT_NAME" style="text;strokeColor=none;fillColor=none;align=left;verticalAlign=top;spacingLeft=4;spacingRight=4;overflow=hidden;rotatable=0;points=[[0,0.5],[1,0.5]];portConstraint=eastwest;whiteSpace=wrap;html=1;" vertex="1" parent="mdiExh4OUoVhqkoO6KxK-42">
          <mxGeometry y="104" width="260" height="26" as="geometry" />
        </mxCell>
        <mxCell id="mdiExh4OUoVhqkoO6KxK-75" style="edgeStyle=orthogonalEdgeStyle;rounded=0;orthogonalLoop=1;jettySize=auto;html=1;startArrow=ERone;startFill=0;endArrow=ERmany;endFill=0;" edge="1" parent="1" source="mdiExh4OUoVhqkoO6KxK-49" target="mdiExh4OUoVhqkoO6KxK-54">
          <mxGeometry relative="1" as="geometry" />
        </mxCell>
        <mxCell id="mdiExh4OUoVhqkoO6KxK-49" value="SSPS" style="swimlane;fontStyle=0;childLayout=stackLayout;horizontal=1;startSize=26;fillColor=#fad7ac;horizontalStack=0;resizeParent=1;resizeParentMax=0;resizeLast=0;collapsible=1;marginBottom=0;html=1;strokeColor=#b46504;" vertex="1" parent="1">
          <mxGeometry x="590" y="631" width="260" height="78" as="geometry" />
        </mxCell>
        <mxCell id="mdiExh4OUoVhqkoO6KxK-50" value="int ID&amp;nbsp;&lt;b&gt;PRIMARY KEY&lt;/b&gt;" style="text;strokeColor=none;fillColor=none;align=left;verticalAlign=top;spacingLeft=4;spacingRight=4;overflow=hidden;rotatable=0;points=[[0,0.5],[1,0.5]];portConstraint=eastwest;whiteSpace=wrap;html=1;" vertex="1" parent="mdiExh4OUoVhqkoO6KxK-49">
          <mxGeometry y="26" width="260" height="26" as="geometry" />
        </mxCell>
        <mxCell id="mdiExh4OUoVhqkoO6KxK-53" value="varcar (100) NAME" style="text;strokeColor=none;fillColor=none;align=left;verticalAlign=top;spacingLeft=4;spacingRight=4;overflow=hidden;rotatable=0;points=[[0,0.5],[1,0.5]];portConstraint=eastwest;whiteSpace=wrap;html=1;" vertex="1" parent="mdiExh4OUoVhqkoO6KxK-49">
          <mxGeometry y="52" width="260" height="26" as="geometry" />
        </mxCell>
        <mxCell id="mdiExh4OUoVhqkoO6KxK-54" value="SECTION_SSPS" style="swimlane;fontStyle=0;childLayout=stackLayout;horizontal=1;startSize=26;fillColor=#b1ddf0;horizontalStack=0;resizeParent=1;resizeParentMax=0;resizeLast=0;collapsible=1;marginBottom=0;html=1;strokeColor=#10739e;" vertex="1" parent="1">
          <mxGeometry x="295" y="618" width="260" height="104" as="geometry" />
        </mxCell>
        <mxCell id="mdiExh4OUoVhqkoO6KxK-55" value="int ID&amp;nbsp;&lt;b&gt;PRIMARY KEY&lt;/b&gt;" style="text;strokeColor=none;fillColor=none;align=left;verticalAlign=top;spacingLeft=4;spacingRight=4;overflow=hidden;rotatable=0;points=[[0,0.5],[1,0.5]];portConstraint=eastwest;whiteSpace=wrap;html=1;" vertex="1" parent="mdiExh4OUoVhqkoO6KxK-54">
          <mxGeometry y="26" width="260" height="26" as="geometry" />
        </mxCell>
        <mxCell id="mdiExh4OUoVhqkoO6KxK-56" value="int SECTION_ID&amp;nbsp;&amp;nbsp;&lt;b&gt;FOREIGN KEY&lt;/b&gt;" style="text;strokeColor=none;fillColor=none;align=left;verticalAlign=top;spacingLeft=4;spacingRight=4;overflow=hidden;rotatable=0;points=[[0,0.5],[1,0.5]];portConstraint=eastwest;whiteSpace=wrap;html=1;" vertex="1" parent="mdiExh4OUoVhqkoO6KxK-54">
          <mxGeometry y="52" width="260" height="26" as="geometry" />
        </mxCell>
        <mxCell id="mdiExh4OUoVhqkoO6KxK-57" value="int SSP_ID&amp;nbsp;&amp;nbsp;&lt;b&gt;FOREIGN KEY&lt;/b&gt;" style="text;strokeColor=none;fillColor=none;align=left;verticalAlign=top;spacingLeft=4;spacingRight=4;overflow=hidden;rotatable=0;points=[[0,0.5],[1,0.5]];portConstraint=eastwest;whiteSpace=wrap;html=1;" vertex="1" parent="mdiExh4OUoVhqkoO6KxK-54">
          <mxGeometry y="78" width="260" height="26" as="geometry" />
        </mxCell>
        <mxCell id="mdiExh4OUoVhqkoO6KxK-77" style="edgeStyle=orthogonalEdgeStyle;rounded=0;orthogonalLoop=1;jettySize=auto;html=1;startArrow=ERmany;startFill=0;endArrow=ERone;endFill=0;" edge="1" parent="1" source="mdiExh4OUoVhqkoO6KxK-59" target="mdiExh4OUoVhqkoO6KxK-49">
          <mxGeometry relative="1" as="geometry" />
        </mxCell>
        <mxCell id="mdiExh4OUoVhqkoO6KxK-78" style="edgeStyle=orthogonalEdgeStyle;rounded=0;orthogonalLoop=1;jettySize=auto;html=1;startArrow=ERmany;startFill=0;endArrow=ERone;endFill=0;" edge="1" parent="1" source="mdiExh4OUoVhqkoO6KxK-59" target="mdiExh4OUoVhqkoO6KxK-42">
          <mxGeometry relative="1" as="geometry" />
        </mxCell>
        <mxCell id="mdiExh4OUoVhqkoO6KxK-59" value="Logs" style="swimlane;fontStyle=0;childLayout=stackLayout;horizontal=1;startSize=26;fillColor=#d0cee2;horizontalStack=0;resizeParent=1;resizeParentMax=0;resizeLast=0;collapsible=1;marginBottom=0;html=1;strokeColor=#56517e;" vertex="1" parent="1">
          <mxGeometry x="590" y="868" width="260" height="156" as="geometry" />
        </mxCell>
        <mxCell id="mdiExh4OUoVhqkoO6KxK-60" value="int ID&amp;nbsp;&lt;b&gt;PRIMARY KEY&lt;/b&gt;" style="text;strokeColor=none;fillColor=none;align=left;verticalAlign=top;spacingLeft=4;spacingRight=4;overflow=hidden;rotatable=0;points=[[0,0.5],[1,0.5]];portConstraint=eastwest;whiteSpace=wrap;html=1;" vertex="1" parent="mdiExh4OUoVhqkoO6KxK-59">
          <mxGeometry y="26" width="260" height="26" as="geometry" />
        </mxCell>
        <mxCell id="mdiExh4OUoVhqkoO6KxK-61" value="int EMPLOYEE_NUMBER&amp;nbsp;&amp;nbsp;&lt;b&gt;FOREIGN KEY&lt;/b&gt;" style="text;strokeColor=none;fillColor=none;align=left;verticalAlign=top;spacingLeft=4;spacingRight=4;overflow=hidden;rotatable=0;points=[[0,0.5],[1,0.5]];portConstraint=eastwest;whiteSpace=wrap;html=1;" vertex="1" parent="mdiExh4OUoVhqkoO6KxK-59">
          <mxGeometry y="52" width="260" height="26" as="geometry" />
        </mxCell>
        <mxCell id="mdiExh4OUoVhqkoO6KxK-62" value="int SSPS&amp;nbsp;&amp;nbsp;&lt;b&gt;FOREIGN KEY&lt;/b&gt;" style="text;strokeColor=none;fillColor=none;align=left;verticalAlign=top;spacingLeft=4;spacingRight=4;overflow=hidden;rotatable=0;points=[[0,0.5],[1,0.5]];portConstraint=eastwest;whiteSpace=wrap;html=1;" vertex="1" parent="mdiExh4OUoVhqkoO6KxK-59">
          <mxGeometry y="78" width="260" height="26" as="geometry" />
        </mxCell>
        <mxCell id="mdiExh4OUoVhqkoO6KxK-63" value="double SCALED_TIMESTAMP" style="text;strokeColor=none;fillColor=none;align=left;verticalAlign=top;spacingLeft=4;spacingRight=4;overflow=hidden;rotatable=0;points=[[0,0.5],[1,0.5]];portConstraint=eastwest;whiteSpace=wrap;html=1;" vertex="1" parent="mdiExh4OUoVhqkoO6KxK-59">
          <mxGeometry y="104" width="260" height="26" as="geometry" />
        </mxCell>
        <mxCell id="mdiExh4OUoVhqkoO6KxK-64" value="boolean&amp;nbsp; AUTHORIZED" style="text;strokeColor=none;fillColor=none;align=left;verticalAlign=top;spacingLeft=4;spacingRight=4;overflow=hidden;rotatable=0;points=[[0,0.5],[1,0.5]];portConstraint=eastwest;whiteSpace=wrap;html=1;" vertex="1" parent="mdiExh4OUoVhqkoO6KxK-59">
          <mxGeometry y="130" width="260" height="26" as="geometry" />
        </mxCell>
        <mxCell id="mdiExh4OUoVhqkoO6KxK-65" value="Insiders" style="swimlane;fontStyle=0;childLayout=stackLayout;horizontal=1;startSize=26;fillColor=#f8cecc;horizontalStack=0;resizeParent=1;resizeParentMax=0;resizeLast=0;collapsible=1;marginBottom=0;html=1;strokeColor=#b85450;" vertex="1" parent="1">
          <mxGeometry x="295" y="1060" width="260" height="78" as="geometry" />
        </mxCell>
        <mxCell id="mdiExh4OUoVhqkoO6KxK-66" value="int ID&amp;nbsp;&lt;b&gt;PRIMARY KEY&lt;/b&gt;" style="text;strokeColor=none;fillColor=none;align=left;verticalAlign=top;spacingLeft=4;spacingRight=4;overflow=hidden;rotatable=0;points=[[0,0.5],[1,0.5]];portConstraint=eastwest;whiteSpace=wrap;html=1;" vertex="1" parent="mdiExh4OUoVhqkoO6KxK-65">
          <mxGeometry y="26" width="260" height="26" as="geometry" />
        </mxCell>
        <mxCell id="mdiExh4OUoVhqkoO6KxK-67" value="int EMPLOYEE_NUMBER&amp;nbsp;&amp;nbsp;&lt;b&gt;FOREIGN KEY&lt;/b&gt;" style="text;strokeColor=none;fillColor=none;align=left;verticalAlign=top;spacingLeft=4;spacingRight=4;overflow=hidden;rotatable=0;points=[[0,0.5],[1,0.5]];portConstraint=eastwest;whiteSpace=wrap;html=1;" vertex="1" parent="mdiExh4OUoVhqkoO6KxK-65">
          <mxGeometry y="52" width="260" height="26" as="geometry" />
        </mxCell>
      </root>
    </mxGraphModel>
  </diagram>
</mxfile>
